<svg width="355" height="242" viewBox="0 0 355 242" fill="none" xmlns="http://www.w3.org/2000/svg">
<path fill-rule="evenodd" clip-rule="evenodd" d="M86.5353 154.786L76.4715 168.928L105.729 189.771L116.284 176.853L140.645 164.71C141.861 164.104 142.855 163.13 143.484 161.926C144.114 160.723 144.346 159.351 144.149 158.007C143.977 156.826 143.48 155.717 142.714 154.803C141.948 153.888 140.943 153.204 139.811 152.827C140.607 151.781 141.065 150.517 141.122 149.204C141.18 147.891 140.834 146.592 140.132 145.481C139.375 144.273 138.239 143.35 136.902 142.857C135.564 142.364 134.101 142.328 132.741 142.756C133.759 141.387 134.191 139.67 133.943 137.982C133.813 137.09 133.496 136.236 133.016 135.473C132.174 134.147 130.878 133.173 129.369 132.735C127.861 132.297 126.244 132.425 124.823 133.094L100.839 144.441L100.498 130.891C100.461 129.443 99.8523 128.069 98.8049 127.069C97.7575 126.068 96.3566 125.523 94.9086 125.553C93.5944 125.583 92.3344 126.083 91.3582 126.963C90.383 127.845 89.757 129.047 89.5942 130.351L86.5353 154.786Z" fill="#DD9C74"/>
<mask id="mask0_19038_2368" style="mask-type:luminance" maskUnits="userSpaceOnUse" x="76" y="125" width="69" height="65">
<path fill-rule="evenodd" clip-rule="evenodd" d="M86.5353 154.786L76.4715 168.928L105.729 189.771L116.284 176.853L140.645 164.71C141.861 164.104 142.855 163.13 143.484 161.926C144.114 160.723 144.346 159.351 144.149 158.007C143.977 156.826 143.48 155.717 142.714 154.803C141.948 153.888 140.943 153.204 139.811 152.827C140.607 151.781 141.065 150.517 141.122 149.204C141.18 147.891 140.834 146.592 140.132 145.481C139.375 144.273 138.239 143.35 136.902 142.857C135.564 142.364 134.101 142.328 132.741 142.756C133.759 141.387 134.191 139.67 133.943 137.982C133.813 137.09 133.496 136.236 133.016 135.473C132.174 134.147 130.878 133.173 129.369 132.735C127.861 132.297 126.244 132.425 124.823 133.094L100.839 144.441L100.498 130.891C100.461 129.443 99.8523 128.069 98.8049 127.069C97.7575 126.068 96.3566 125.523 94.9086 125.553C93.5944 125.583 92.3344 126.083 91.3582 126.963C90.383 127.845 89.757 129.047 89.5942 130.351L86.5353 154.786Z" fill="white"/>
</mask>
<g mask="url(#mask0_19038_2368)">
<path d="M76.4715 168.928L75.3189 168.108C75.1014 168.414 75.0141 168.793 75.0764 169.163C75.1387 169.533 75.3455 169.863 75.6512 170.081L76.4715 168.928ZM86.5353 154.786L87.6879 155.607C87.8235 155.416 87.9094 155.194 87.9388 154.963L86.5353 154.786ZM105.729 189.771L104.908 190.924C105.2 191.132 105.561 191.221 105.917 191.173C106.273 191.126 106.597 190.944 106.824 190.666L105.729 189.771ZM116.284 176.853L115.653 175.587C115.474 175.677 115.315 175.803 115.189 175.958L116.284 176.853ZM139.811 152.827L138.686 151.97C138.549 152.149 138.457 152.358 138.417 152.58C138.378 152.802 138.392 153.029 138.458 153.245C138.524 153.46 138.641 153.656 138.799 153.817C138.956 153.978 139.15 154.099 139.364 154.169L139.811 152.827ZM140.132 145.481L138.933 146.232L138.936 146.237L140.132 145.481ZM132.741 142.756L131.605 141.913C131.427 142.153 131.329 142.444 131.326 142.743C131.323 143.042 131.415 143.334 131.588 143.577C131.761 143.821 132.007 144.004 132.291 144.099C132.574 144.194 132.881 144.197 133.166 144.107L132.741 142.756ZM133.016 135.473L134.211 134.719L134.21 134.716L133.016 135.473ZM124.823 133.094L124.221 131.813L124.219 131.815L124.823 133.094ZM100.839 144.441L99.4252 144.476C99.4303 144.712 99.4944 144.943 99.6117 145.147C99.7289 145.352 99.8956 145.524 100.096 145.648C100.297 145.771 100.526 145.843 100.761 145.855C100.997 145.868 101.232 145.821 101.445 145.719L100.839 144.441ZM100.498 130.891L99.0828 130.926V130.928L100.498 130.891ZM94.9086 125.553L94.8781 124.138H94.877L94.9086 125.553ZM77.6241 169.749L87.6879 155.607L85.3816 153.966L75.3189 168.108L77.6241 169.749ZM106.55 188.619L77.293 167.777L75.6512 170.081L104.908 190.924L106.55 188.619ZM115.189 175.958L104.633 188.876L106.824 190.666L117.38 177.749L115.189 175.958ZM116.915 178.12L141.276 165.976L140.014 163.443L115.653 175.587L116.915 178.12ZM141.276 165.977C142.26 165.486 143.13 164.795 143.831 163.947L141.649 162.145C141.2 162.687 140.644 163.129 140.014 163.443L141.276 165.977ZM143.831 163.947C144.531 163.1 145.045 162.115 145.342 161.057L142.616 160.295C142.426 160.972 142.097 161.603 141.649 162.145L143.831 163.947ZM145.342 161.057C145.637 159.998 145.708 158.889 145.55 157.801L142.749 158.211C142.851 158.907 142.806 159.617 142.616 160.295L145.342 161.057ZM145.55 157.801C145.39 156.714 145.004 155.672 144.417 154.742L142.025 156.253C142.4 156.847 142.647 157.515 142.749 158.211L145.55 157.801ZM144.417 154.742C143.448 153.21 141.979 152.058 140.259 151.484L139.364 154.169C140.465 154.536 141.405 155.272 142.025 156.253L144.417 154.742ZM139.527 150.279C139.356 150.891 139.071 151.465 138.686 151.97L140.938 153.683C141.539 152.893 141.985 151.996 142.252 151.04L139.527 150.279ZM139.66 148.195C139.762 148.891 139.717 149.601 139.527 150.279L142.252 151.04C142.548 149.982 142.619 148.873 142.46 147.785L139.66 148.195ZM138.936 146.237C139.311 146.831 139.558 147.499 139.66 148.195L142.46 147.785C142.301 146.697 141.915 145.655 141.329 144.726L138.936 146.237ZM136.087 144.077C137.267 144.423 138.28 145.19 138.933 146.232L141.331 144.73C140.311 143.101 138.728 141.902 136.882 141.362L136.087 144.077ZM133.166 144.107C134.115 143.808 135.132 143.798 136.087 144.077L136.882 141.362C135.39 140.925 133.801 140.94 132.317 141.407L133.166 144.107ZM132.41 140.27C132.245 140.863 131.972 141.42 131.605 141.913L133.878 143.599C134.45 142.828 134.877 141.958 135.135 141.033L132.41 140.27ZM132.543 138.187C132.645 138.883 132.6 139.593 132.41 140.27L135.135 141.033C135.432 139.974 135.503 138.865 135.343 137.778L132.543 138.187ZM131.819 136.229C132.194 136.824 132.442 137.491 132.543 138.187L135.343 137.778C135.184 136.69 134.799 135.648 134.211 134.719L131.819 136.229ZM128.975 134.094C130.152 134.436 131.164 135.196 131.82 136.232L134.21 134.716C133.184 133.098 131.603 131.911 129.763 131.376L128.975 134.094ZM125.427 134.374C126.536 133.852 127.797 133.752 128.975 134.094L129.763 131.376C127.924 130.842 125.953 130.997 124.221 131.813L125.427 134.374ZM101.445 145.719L125.429 134.373L124.219 131.815L100.234 143.162L101.445 145.719ZM99.0828 130.928L99.4252 144.476L102.254 144.405L101.912 130.856L99.0828 130.928ZM97.8285 128.091C98.6052 128.833 99.0562 129.853 99.0828 130.926L101.912 130.856C101.867 129.034 101.101 127.304 99.7834 126.045L97.8285 128.091ZM94.938 126.968C96.0126 126.945 97.0511 127.349 97.8285 128.091L99.7834 126.045C98.4647 124.786 96.701 124.1 94.8781 124.138L94.938 126.968ZM92.3074 128.013C93.0307 127.36 93.9649 126.989 94.9391 126.968L94.877 124.138C93.2232 124.175 91.6378 124.805 90.4101 125.914L92.3074 128.013ZM90.9988 130.526C91.1187 129.559 91.5832 128.666 92.3074 128.013L90.4101 125.914C89.1826 127.022 88.3948 128.535 88.1908 130.176L90.9988 130.526ZM87.9388 154.963L90.9988 130.526L88.1908 130.176L85.1307 154.61L87.9388 154.963Z" fill="black"/>
</g>
<path d="M51.1177 205.913L67.8474 169.266C69.5926 167.42 71.9442 166.264 74.4718 166.01C76.9994 165.756 79.534 166.42 81.6119 167.882L104.546 183.997C106.822 185.593 108.379 188.02 108.88 190.754C109.381 193.488 108.787 196.31 107.224 198.609L87.4789 216.743" fill="#FF6000"/>
<mask id="mask1_19038_2368" style="mask-type:luminance" maskUnits="userSpaceOnUse" x="51" y="165" width="59" height="52">
<path d="M51.1177 205.913L67.8474 169.266C69.5926 167.42 71.9442 166.264 74.4718 166.01C76.9994 165.756 79.534 166.42 81.6119 167.882L104.546 183.997C106.822 185.593 108.379 188.02 108.88 190.754C109.381 193.488 108.787 196.31 107.224 198.609L87.4789 216.743" fill="white"/>
</mask>
<g mask="url(#mask1_19038_2368)">
<path d="M67.8474 169.266L66.8191 168.294L66.6575 168.465L66.5592 168.678L67.8474 169.266ZM104.546 183.997L103.733 185.155L103.735 185.156L104.546 183.997ZM107.224 198.609L108.182 199.651L108.303 199.54L108.395 199.404L107.224 198.609ZM52.4048 206.501L69.1344 169.854L66.5592 168.678L49.8307 205.326L52.4048 206.501ZM68.8746 170.239C70.3865 168.64 72.4233 167.639 74.6127 167.419L74.3302 164.603C71.4642 164.891 68.7979 166.201 66.8191 168.294L68.8746 170.239ZM74.6127 167.419C76.8021 167.198 78.9977 167.773 80.7972 169.04L82.4255 166.725C80.0696 165.068 77.1959 164.315 74.3302 164.603L74.6127 167.419ZM80.7972 169.04L103.733 185.155L105.36 182.84L82.4255 166.725L80.7972 169.04ZM103.735 185.156C105.707 186.538 107.056 188.64 107.49 191.008L110.273 190.499C109.705 187.399 107.94 184.647 105.359 182.839L103.735 185.156ZM107.49 191.008C107.924 193.377 107.408 195.822 106.055 197.813L108.395 199.404C110.167 196.798 110.842 193.599 110.273 190.499L107.49 191.008ZM106.267 197.567L86.5218 215.701L88.436 217.785L108.182 199.651L106.267 197.567Z" fill="black"/>
</g>
<path d="M74.8997 175.421L97.8353 191.536L97.8364 191.537C99.9607 193.026 101.414 195.29 101.881 197.842C102.349 200.393 101.793 203.026 100.335 205.171V205.172L79.6581 235.685C78.7757 236.986 77.6376 238.093 76.3132 238.939C74.9888 239.786 73.506 240.354 71.955 240.608C70.404 240.863 68.8174 240.799 67.2919 240.42C65.7665 240.042 64.3341 239.356 63.0822 238.406L36.6063 218.297C34.5657 216.748 33.097 214.565 32.4303 212.092C31.7636 209.618 31.9367 206.993 32.9225 204.628C33.5766 203.059 34.5681 201.654 35.8266 200.512L62.0064 176.75L62.0256 176.732L62.0448 176.712C63.6738 174.986 65.8704 173.906 68.2316 173.668C70.5927 173.431 72.9602 174.054 74.8997 175.421Z" fill="#FFAC00" stroke="black" stroke-width="1.252"/>
<path d="M138.694 153.258L119.278 161.132M133.872 142.635L114.456 150.509" stroke="black" stroke-width="1.252" stroke-linecap="round"/>
<mask id="mask2_19038_2368" style="mask-type:luminance" maskUnits="userSpaceOnUse" x="89" y="15" width="150" height="136">
<path d="M233.607 77.249L229.668 79.4864L225.533 81.8673C224.082 82.7092 222.633 83.533 221.2 84.3918L218.049 86.3614L214.219 88.7242C213.573 89.1186 212.929 89.5299 212.32 89.9593C210.083 91.4995 207.755 92.9131 205.536 94.4533L200.469 98.0342C197.64 99.9858 194.901 102.08 192.09 104.085C188.33 106.717 184.75 109.564 181.169 112.463C179.38 113.931 177.481 115.346 175.691 116.886C173.596 118.676 171.448 120.466 169.336 122.257L165.057 126.07C162.781 128.082 160.531 130.123 158.307 132.193C156.356 133.983 154.494 135.898 152.543 137.706C150.592 139.514 149.106 140.983 147.422 142.648C144.988 145.083 142.517 147.482 140.154 149.988C139.701 150.501 138.881 150.436 138.385 149.966C138.134 149.728 137.875 149.496 137.611 149.272C136.338 148.257 133.931 147.083 130.893 147.143C127.856 147.203 126.545 148.092 123.854 150.116C123.235 150.583 122.315 150.561 121.744 150.021C121.172 149.482 120.478 148.699 119.53 147.482C119.425 147.377 119.366 147.236 119.365 147.088C119.365 147.014 119.38 146.942 119.408 146.874C119.437 146.807 119.478 146.746 119.53 146.694C119.758 146.39 119.922 146.043 120.011 145.673C120.101 145.304 120.113 144.92 120.049 144.545C120.001 144.171 119.864 143.814 119.649 143.504C119.434 143.194 119.148 142.94 118.815 142.764C118.481 142.589 118.11 142.497 117.732 142.495C117.355 142.494 116.983 142.583 116.648 142.755C116.253 142.97 116.002 142.934 115.771 142.577C115.599 142.301 115.401 142.043 115.18 141.806C115.044 141.705 114.931 141.577 114.848 141.431C114.764 141.284 114.712 141.122 114.694 140.954C114.675 140.786 114.69 140.616 114.74 140.455C114.789 140.293 114.872 140.144 114.982 140.016C115.27 139.547 115.386 138.993 115.311 138.447C115.236 137.902 114.974 137.4 114.571 137.026C114.228 136.646 113.765 136.396 113.259 136.318C112.754 136.239 112.237 136.338 111.795 136.597C111.473 136.758 111.277 136.758 111.062 136.453C110.847 136.149 110.4 135.558 110.042 135.129C109.973 135.067 109.917 134.991 109.879 134.906C109.842 134.821 109.822 134.729 109.822 134.637C109.822 134.544 109.842 134.452 109.879 134.367C109.917 134.282 109.973 134.206 110.042 134.143C110.355 133.701 110.523 133.173 110.523 132.631C110.523 132.089 110.355 131.561 110.042 131.118C109.746 130.68 109.309 130.358 108.804 130.204C108.298 130.051 107.755 130.076 107.266 130.277C106.515 130.527 106.515 130.527 106.013 129.883L105.226 128.845C105.172 128.796 105.129 128.737 105.1 128.67C105.07 128.604 105.055 128.533 105.055 128.46C105.055 128.388 105.07 128.316 105.1 128.25C105.129 128.183 105.172 128.124 105.226 128.075C105.452 127.804 105.619 127.489 105.718 127.15C105.817 126.811 105.844 126.456 105.798 126.106C105.75 125.558 105.512 125.044 105.125 124.653C104.739 124.262 104.229 124.017 103.682 123.961C103.319 123.924 102.953 123.972 102.612 124.1C101.859 124.423 101.841 124.387 101.377 123.76L101 123.277C100.764 123.02 100.565 122.731 100.409 122.417C100.266 122.024 100.713 121.844 100.857 121.522C101.11 121.042 101.207 120.495 101.137 119.956C101.067 119.418 100.831 118.914 100.464 118.514C100.132 118.146 99.6818 117.906 99.1915 117.834C98.7012 117.762 98.2012 117.864 97.7777 118.121C97.4195 118.282 97.2025 118.196 96.9539 117.941C96.7053 117.688 96.3697 117.315 96.1584 116.953C96.0118 116.698 95.9445 116.406 95.965 116.114C95.9856 115.821 96.093 115.541 96.2737 115.31C96.5917 114.78 96.69 114.147 96.5475 113.545C96.405 112.944 96.0329 112.422 95.5109 112.091C95.1646 111.873 94.7674 111.748 94.3583 111.73C93.9544 111.732 93.5586 111.844 93.2125 112.052C93.1458 112.11 93.066 112.151 92.9801 112.172C92.8941 112.192 92.8045 112.192 92.7187 112.171C92.6332 112.149 92.554 112.107 92.4875 112.049C92.421 111.992 92.3689 111.919 92.3356 111.837C91.5947 110.68 90.794 109.563 89.9366 108.489C89.7038 108.185 89.6677 107.97 89.9366 107.701C92.2464 105.883 93.8432 103.31 94.4476 100.433C95.2828 97.0393 94.7559 93.4532 92.9797 90.4429C92.2814 89.244 92.2814 89.279 93.2486 88.2767C94.5368 86.9523 95.8081 85.6088 97.0974 84.2663L100.481 80.8289L104.294 77.0513L107.052 74.4014L110.633 70.9289C111.241 70.356 111.868 69.7831 112.422 69.2464C114.696 67.2587 116.88 65.1818 119.172 63.2303C120.962 61.655 122.913 60.0437 124.794 58.4323C129.485 54.4298 134.303 50.5787 139.241 46.8848C141.318 45.3277 143.377 43.7163 145.507 42.2123C147.638 40.7094 149.875 39.0799 152.095 37.5397C154.315 36.0006 156.589 34.4966 158.844 32.9745C161.101 31.4535 163.804 29.806 166.274 28.2127C168.745 26.6194 171.735 24.8283 174.474 23.1819C178.054 21.0157 181.635 18.8676 185.431 16.8618C185.913 16.6121 186.379 16.3251 186.844 16.0561C187.31 15.7883 187.471 15.7341 187.937 16.2539C189.422 18.0019 191.354 19.3145 193.526 20.0521C195.698 20.7897 198.029 20.9248 200.272 20.4428C202.012 20.1048 203.652 19.3765 205.07 18.3128C205.607 17.9184 205.625 17.9184 206.036 18.4371C206.824 19.4574 207.576 20.4959 208.382 21.4994C208.686 21.8745 208.757 22.1615 208.382 22.5378C208.027 22.8961 207.813 23.3705 207.78 23.8738C207.747 24.3771 207.897 24.8754 208.202 25.2769C208.48 25.6898 208.879 26.0062 209.344 26.1825C209.809 26.3588 210.318 26.3863 210.799 26.2612C210.967 26.1668 211.155 26.111 211.347 26.0976C211.54 26.0843 211.733 26.1138 211.912 26.1841C212.092 26.2543 212.254 26.3636 212.387 26.5039C212.519 26.6442 212.619 26.8122 212.678 26.9957C212.745 27.0883 212.816 27.1787 212.893 27.2635C213.395 27.9257 213.395 27.9257 212.893 28.5709C212.588 28.9498 212.411 29.4159 212.389 29.9019C212.366 30.3878 212.499 30.8683 212.768 31.2739C213.076 31.697 213.501 32.0208 213.991 32.2053C214.481 32.3898 215.014 32.427 215.525 32.3123C216.51 32.0434 216.51 32.0434 217.1 32.8491L217.423 33.2615C217.96 33.9768 217.96 33.9768 217.423 34.6932C217.137 35.0535 216.972 35.4941 216.949 35.9534C216.927 36.4126 217.049 36.8674 217.298 37.2538C217.519 37.6512 217.848 37.978 218.247 38.1966C218.646 38.4151 219.099 38.5164 219.553 38.4889C219.815 38.4765 220.074 38.4279 220.323 38.3454C221.075 38.1307 221.075 38.1126 221.523 38.7036L221.898 39.2053C222.113 39.5093 222.453 39.759 222.525 40.1364C222.596 40.5116 222.149 40.6901 221.988 40.9772C221.73 41.3706 221.592 41.8312 221.592 42.3021C221.592 42.773 221.73 43.2336 221.988 43.627C222.281 44.0282 222.684 44.3363 223.147 44.5141C223.611 44.6919 224.116 44.7319 224.602 44.6293C224.747 44.6086 224.887 44.5599 225.013 44.4858C225.087 44.44 225.17 44.4106 225.256 44.3994C225.342 44.3883 225.43 44.3957 225.513 44.4212C225.596 44.4467 225.673 44.4896 225.738 44.5471C225.803 44.6047 225.855 44.6755 225.89 44.7548C226.034 44.9695 226.213 45.1672 226.374 45.3819C226.647 45.6822 226.876 46.0196 227.054 46.3842C227.143 46.7594 226.679 46.9921 226.499 47.3153C226.275 47.7737 226.195 48.2891 226.27 48.7939C226.344 49.2986 226.569 49.7692 226.915 50.1437C227.262 50.518 227.714 50.7781 228.212 50.8899C228.71 51.0017 229.23 50.9598 229.704 50.7697C229.782 50.7171 229.87 50.6822 229.963 50.6673C230.056 50.6524 230.151 50.658 230.241 50.6836C230.332 50.7092 230.415 50.7543 230.486 50.8156C230.558 50.8769 230.615 50.9531 230.653 51.0387C230.957 51.4862 231.297 51.9336 231.656 52.363C231.712 52.4082 231.757 52.4659 231.788 52.5314C231.819 52.5962 231.836 52.6673 231.836 52.7393C231.836 52.8114 231.819 52.8825 231.788 52.9473C231.757 53.0128 231.712 53.0704 231.656 53.1156C231.347 53.4803 231.163 53.9344 231.131 54.4112C231.098 54.888 231.22 55.3626 231.477 55.7655C231.715 56.3349 232.157 56.7951 232.717 57.0564C233.276 57.3178 233.912 57.3615 234.502 57.1791C235.182 56.9463 235.486 57.1791 235.863 57.6808C236.632 58.7724 237.474 59.8289 238.262 60.9217C238.673 61.4584 238.656 61.4946 238.065 61.7985C236.105 62.7074 234.46 64.178 233.338 66.0236C232.371 67.5367 231.835 69.2848 231.788 71.0799C231.741 72.8749 232.184 74.6488 233.07 76.2106L233.607 77.249Z" fill="white"/>
</mask>
<g mask="url(#mask2_19038_2368)">
<path d="M233.607 77.249L229.668 79.4864L225.533 81.8673C224.082 82.7092 222.633 83.533 221.2 84.3918L218.049 86.3614L214.219 88.7242C213.573 89.1186 212.929 89.5299 212.32 89.9593C210.083 91.4995 207.755 92.9131 205.536 94.4533L200.469 98.0342C197.64 99.9858 194.901 102.08 192.09 104.085C188.33 106.717 184.75 109.564 181.169 112.463C179.38 113.931 177.481 115.346 175.691 116.886C173.596 118.676 171.448 120.466 169.336 122.257L165.057 126.07C162.781 128.082 160.531 130.123 158.307 132.193C156.356 133.983 154.494 135.898 152.543 137.706C150.592 139.514 149.106 140.983 147.422 142.648C144.988 145.083 142.517 147.482 140.154 149.988C139.701 150.501 138.881 150.436 138.385 149.966C138.134 149.728 137.875 149.496 137.611 149.272C136.338 148.257 133.931 147.083 130.893 147.143C127.856 147.203 126.545 148.092 123.854 150.116C123.235 150.583 122.315 150.561 121.744 150.021C121.172 149.482 120.478 148.699 119.53 147.482C119.425 147.377 119.366 147.236 119.365 147.088C119.365 147.014 119.38 146.942 119.408 146.874C119.437 146.807 119.478 146.746 119.53 146.694C119.758 146.39 119.922 146.043 120.011 145.673C120.101 145.304 120.113 144.92 120.049 144.545C120.001 144.171 119.864 143.814 119.649 143.504C119.434 143.194 119.148 142.94 118.815 142.764C118.481 142.589 118.11 142.497 117.732 142.495C117.355 142.494 116.983 142.583 116.648 142.755C116.253 142.97 116.002 142.934 115.771 142.577C115.599 142.301 115.401 142.043 115.18 141.806C115.044 141.705 114.931 141.577 114.848 141.431C114.764 141.284 114.712 141.122 114.694 140.954C114.675 140.786 114.69 140.616 114.74 140.455C114.789 140.293 114.872 140.144 114.982 140.016C115.27 139.547 115.386 138.993 115.311 138.447C115.236 137.902 114.974 137.4 114.571 137.026C114.228 136.646 113.765 136.396 113.259 136.318C112.754 136.239 112.237 136.338 111.795 136.597C111.473 136.758 111.277 136.758 111.062 136.453C110.847 136.149 110.4 135.558 110.042 135.129C109.973 135.067 109.917 134.991 109.879 134.906C109.842 134.821 109.822 134.729 109.822 134.637C109.822 134.544 109.842 134.452 109.879 134.367C109.917 134.282 109.973 134.206 110.042 134.143C110.355 133.701 110.523 133.173 110.523 132.631C110.523 132.089 110.355 131.561 110.042 131.118C109.746 130.68 109.309 130.358 108.804 130.204C108.298 130.051 107.755 130.076 107.266 130.277C106.515 130.527 106.515 130.527 106.013 129.883L105.226 128.845C105.172 128.796 105.129 128.737 105.1 128.67C105.07 128.604 105.055 128.533 105.055 128.46C105.055 128.388 105.07 128.316 105.1 128.25C105.129 128.183 105.172 128.124 105.226 128.075C105.452 127.804 105.619 127.489 105.718 127.15C105.817 126.811 105.844 126.456 105.798 126.106C105.75 125.558 105.512 125.044 105.125 124.653C104.739 124.262 104.229 124.017 103.682 123.961C103.319 123.924 102.953 123.972 102.612 124.1C101.859 124.423 101.841 124.387 101.377 123.76L101 123.277C100.764 123.02 100.565 122.731 100.409 122.417C100.266 122.024 100.713 121.844 100.857 121.522C101.11 121.042 101.207 120.495 101.137 119.956C101.067 119.418 100.831 118.914 100.464 118.514C100.132 118.146 99.6818 117.906 99.1915 117.834C98.7012 117.762 98.2012 117.864 97.7777 118.121C97.4195 118.282 97.2025 118.196 96.9539 117.941C96.7053 117.688 96.3697 117.315 96.1584 116.953C96.0118 116.698 95.9445 116.406 95.965 116.114C95.9856 115.821 96.093 115.541 96.2737 115.31C96.5917 114.78 96.69 114.147 96.5475 113.545C96.405 112.944 96.0329 112.422 95.5109 112.091C95.1646 111.873 94.7674 111.748 94.3583 111.73C93.9544 111.732 93.5586 111.844 93.2125 112.052C93.1458 112.11 93.066 112.151 92.9801 112.172C92.8941 112.192 92.8045 112.192 92.7187 112.171C92.6332 112.149 92.554 112.107 92.4875 112.049C92.421 111.992 92.3689 111.919 92.3356 111.837C91.5947 110.68 90.794 109.563 89.9366 108.489C89.7038 108.185 89.6677 107.97 89.9366 107.701C92.2464 105.883 93.8432 103.31 94.4476 100.433C95.2828 97.0393 94.7559 93.4532 92.9797 90.4429C92.2814 89.244 92.2814 89.279 93.2486 88.2767C94.5368 86.9523 95.8081 85.6088 97.0974 84.2663L100.481 80.8289L104.294 77.0513L107.052 74.4014L110.633 70.9289C111.241 70.356 111.868 69.7831 112.422 69.2464C114.696 67.2587 116.88 65.1818 119.172 63.2303C120.962 61.655 122.913 60.0437 124.794 58.4323C129.485 54.4298 134.303 50.5787 139.241 46.8848C141.318 45.3277 143.377 43.7163 145.507 42.2123C147.638 40.7094 149.875 39.0799 152.095 37.5397C154.315 36.0006 156.589 34.4966 158.844 32.9745C161.101 31.4535 163.804 29.806 166.274 28.2127C168.745 26.6194 171.735 24.8283 174.474 23.1819C178.054 21.0157 181.635 18.8676 185.431 16.8618C185.913 16.6121 186.379 16.3251 186.844 16.0561C187.31 15.7883 187.471 15.7341 187.937 16.2539C189.422 18.0019 191.354 19.3145 193.526 20.0521C195.698 20.7897 198.029 20.9248 200.272 20.4428C202.012 20.1048 203.652 19.3765 205.07 18.3128C205.607 17.9184 205.625 17.9184 206.036 18.4371C206.824 19.4574 207.576 20.4959 208.382 21.4994C208.686 21.8745 208.757 22.1615 208.382 22.5378C208.027 22.8961 207.813 23.3705 207.78 23.8738C207.747 24.3771 207.897 24.8754 208.202 25.2769C208.48 25.6898 208.879 26.0062 209.344 26.1825C209.809 26.3588 210.318 26.3863 210.799 26.2612C210.967 26.1668 211.155 26.111 211.347 26.0976C211.54 26.0843 211.733 26.1138 211.912 26.1841C212.092 26.2543 212.254 26.3636 212.387 26.5039C212.519 26.6442 212.619 26.8122 212.678 26.9957C212.745 27.0883 212.816 27.1787 212.893 27.2635C213.395 27.9257 213.395 27.9257 212.893 28.5709C212.588 28.9498 212.411 29.4159 212.389 29.9019C212.366 30.3878 212.499 30.8683 212.768 31.2739C213.076 31.697 213.501 32.0208 213.991 32.2053C214.481 32.3898 215.014 32.427 215.525 32.3123C216.51 32.0434 216.51 32.0434 217.1 32.8491L217.423 33.2615C217.96 33.9768 217.96 33.9768 217.423 34.6932C217.137 35.0535 216.972 35.4941 216.949 35.9534C216.927 36.4126 217.049 36.8674 217.298 37.2538C217.519 37.6512 217.848 37.978 218.247 38.1966C218.646 38.4151 219.099 38.5164 219.553 38.4889C219.815 38.4765 220.074 38.4279 220.323 38.3454C221.075 38.1307 221.075 38.1126 221.523 38.7036L221.898 39.2053C222.113 39.5093 222.453 39.759 222.525 40.1364C222.596 40.5116 222.149 40.6901 221.988 40.9772C221.73 41.3706 221.592 41.8312 221.592 42.3021C221.592 42.773 221.73 43.2336 221.988 43.627C222.281 44.0282 222.684 44.3363 223.147 44.5141C223.611 44.6919 224.116 44.7319 224.602 44.6293C224.747 44.6086 224.887 44.5599 225.013 44.4858C225.087 44.44 225.17 44.4106 225.256 44.3994C225.342 44.3883 225.43 44.3957 225.513 44.4212C225.596 44.4467 225.673 44.4896 225.738 44.5471C225.803 44.6047 225.855 44.6755 225.89 44.7548C226.034 44.9695 226.213 45.1672 226.374 45.3819C226.647 45.6822 226.876 46.0196 227.054 46.3842C227.143 46.7594 226.679 46.9921 226.499 47.3153C226.275 47.7737 226.195 48.2891 226.27 48.7939C226.344 49.2986 226.569 49.7692 226.915 50.1437C227.262 50.518 227.714 50.7781 228.212 50.8899C228.71 51.0017 229.23 50.9598 229.704 50.7697C229.782 50.7171 229.87 50.6822 229.963 50.6673C230.056 50.6524 230.151 50.658 230.241 50.6836C230.332 50.7092 230.415 50.7543 230.486 50.8156C230.558 50.8769 230.615 50.9531 230.653 51.0387C230.957 51.4862 231.297 51.9336 231.656 52.363C231.712 52.4082 231.757 52.4659 231.788 52.5314C231.819 52.5962 231.836 52.6673 231.836 52.7393C231.836 52.8114 231.819 52.8825 231.788 52.9473C231.757 53.0128 231.712 53.0704 231.656 53.1156C231.347 53.4803 231.163 53.9344 231.131 54.4112C231.098 54.888 231.22 55.3626 231.477 55.7655C231.715 56.3349 232.157 56.7951 232.717 57.0564C233.276 57.3178 233.912 57.3615 234.502 57.1791C235.182 56.9463 235.486 57.1791 235.863 57.6808C236.632 58.7724 237.474 59.8289 238.262 60.9217C238.673 61.4584 238.656 61.4946 238.065 61.7985C236.105 62.7074 234.46 64.178 233.338 66.0236C232.371 67.5367 231.835 69.2848 231.788 71.0799C231.741 72.8749 232.184 74.6488 233.07 76.2106L233.607 77.249Z" fill="#FF7043" stroke="black" stroke-width="2.504"/>
</g>
<path d="M125.793 60.1882L171.665 117.605" stroke="white" stroke-width="0.792" stroke-miterlimit="10"/>
<path d="M159.246 70.2407L160.225 63.0743C160.497 60.8064 160.061 58.8289 158.907 57.1915C157.755 55.553 156.233 54.6298 154.296 54.4151C152.359 54.2004 150.571 54.6693 148.933 55.8231C145.267 58.4029 144.463 62.333 146.518 66.4925L150.946 64.289C150.102 62.5579 150.04 61.2313 151.513 60.195C152.845 59.2571 153.917 59.5396 154.464 60.3182C154.796 60.7906 154.909 61.5409 154.804 62.5703L153.415 76.588L155.174 79.0864L167.977 70.0769L165.162 66.0778L159.246 70.2407ZM176.062 54.4614C176.531 55.1281 176.628 55.9734 176.371 57.0254C176.143 58.0582 175.533 58.9023 174.589 59.5679C173.479 60.3487 172.013 60.5081 170.172 60.0176L168.487 64.941C169.961 65.4405 171.567 65.5976 173.211 65.3964C174.854 65.1942 176.291 64.6393 177.541 63.7602C179.902 62.0991 181.312 60.151 181.81 57.8492C182.307 55.5462 181.856 53.3721 180.45 51.3731C179.14 49.512 177.482 48.3956 175.542 48.0577C173.602 47.721 171.775 48.1346 170.136 49.2872C168.887 50.1674 167.983 51.3019 167.481 52.6523L166.129 49.9064L173.683 44.5909L170.967 40.7308L159.913 48.5097L165.427 59.412L168.105 59.1464C168.465 56.9429 169.515 55.2479 171.237 54.0365C173.014 52.7856 174.948 52.8783 176.062 54.4614ZM186.476 29.8139L190.162 54.4626L192.772 52.6252L189.114 27.9573L186.476 29.8139ZM184.314 36.36C183.592 35.3328 182.625 34.726 181.394 34.5124C180.145 34.2706 179.002 34.535 177.975 35.2582C176.947 35.9814 176.313 36.9679 176.098 38.1985C175.913 39.4087 176.177 40.5511 176.9 41.5794C177.623 42.6066 178.61 43.2405 179.812 43.4744C181.023 43.6609 182.166 43.3953 183.193 42.6721C184.22 41.9489 184.855 40.9636 185.088 39.7613C185.302 38.5307 185.037 37.3883 184.314 36.36ZM181.927 38.0414C182.454 38.7906 182.262 39.7567 181.512 40.2844C180.763 40.8122 179.816 40.6483 179.288 39.898C178.76 39.1488 178.906 38.1747 179.655 37.647C180.406 37.1182 181.438 37.3464 181.927 38.0414ZM197.898 47.8125C199.109 47.999 200.252 47.7334 201.279 47.0102C202.307 46.287 202.941 45.3016 203.175 44.0993C203.389 42.8688 203.124 41.7263 202.401 40.698C201.678 39.6709 200.691 39.0369 199.461 38.8222C198.231 38.6087 197.088 38.8731 196.061 39.5963C195.033 40.3195 194.398 41.306 194.185 42.5365C193.998 43.7468 194.263 44.8892 194.986 45.9175C195.709 46.9458 196.696 47.5786 197.898 47.8125ZM197.071 43.0383C197.106 42.8262 197.183 42.6233 197.297 42.4413C197.411 42.2593 197.561 42.1018 197.736 41.9781C197.912 41.8545 198.111 41.767 198.321 41.7208C198.531 41.6747 198.748 41.6708 198.959 41.7094C199.171 41.7443 199.374 41.8211 199.556 41.9353C199.738 42.0494 199.895 42.1987 200.019 42.3743C200.143 42.55 200.23 42.7485 200.276 42.9584C200.323 43.1682 200.326 43.3851 200.288 43.5965C200.187 44.0091 199.941 44.3713 199.593 44.6159C199.246 44.8605 198.822 44.9708 198.4 44.9265C197.987 44.8255 197.626 44.5786 197.381 44.2315C197.137 43.8843 197.027 43.4605 197.071 43.0383ZM163.782 91.9074C165.678 94.6013 168.264 96.2692 171.528 96.8364C174.794 97.4037 177.735 96.746 180.429 94.8499C183.15 92.9345 184.791 90.3672 185.33 87.123C185.898 83.8573 185.2 80.8605 183.305 78.1666C181.389 75.4455 178.822 73.8048 175.558 73.2375C172.32 72.6499 169.332 73.3008 166.611 75.2161C163.917 77.1111 162.296 79.7056 161.728 82.9702C161.189 86.2156 161.867 89.1852 163.782 91.9074ZM177.145 90.1841C175.728 91.1808 174.183 91.522 172.508 91.2056C170.832 90.8904 169.472 90.0203 168.475 88.6044C167.478 87.1874 167.118 85.6133 167.387 83.9296C167.635 82.2187 168.477 80.8786 169.894 79.8808C171.31 78.8841 172.856 78.544 174.579 78.8683C176.282 79.1644 177.643 80.0345 178.639 81.4503C179.636 82.8662 179.996 84.4403 179.7 86.1432C179.431 87.8269 178.561 89.1875 177.145 90.1841ZM192.704 74.7483L198.731 70.5074L195.916 66.5084L189.89 70.7492L187.31 67.0835L194.919 61.7285L192.066 57.674L179.764 66.3321L193.23 85.4664L197.923 82.1634L192.704 74.7483ZM207.837 64.0981L213.864 59.856L211.049 55.857L205.023 60.099L202.443 56.4333L210.052 51.0771L207.199 47.0226L194.897 55.6818L208.363 74.815L213.056 71.512L207.837 64.0981Z" fill="white"/>
<path d="M113.412 33.9472L112.592 34.58L113.481 35.1134L113.484 35.1157L113.494 35.1213L113.533 35.145L113.588 35.1789L113.693 35.2422C113.832 35.3292 114.036 35.4569 114.296 35.6219C114.816 35.953 115.554 36.4355 116.425 37.0344C118.169 38.2367 120.436 39.9069 122.546 41.7917C124.665 43.6867 126.58 45.7569 127.666 47.7524C128.752 49.7446 128.935 51.4984 127.927 52.9617C125.106 57.0264 119.296 59.7643 114.035 61.4876C111.117 62.4361 108.137 63.1825 105.117 63.7216C104.867 63.7657 104.673 63.7973 104.543 63.8188L104.395 63.8414L104.358 63.847L104.349 63.8482H104.348L104.346 63.8493L104.254 63.8617L104.168 63.899L19.6868 100.43L6.1991 65.2448L6.25221 65.2222L8.21841 64.3951C18.1507 60.2155 28.0755 56.0183 37.9928 51.8035C55.1349 44.515 74.1607 36.3496 81.639 32.8602L81.6695 32.8455L81.7001 32.8274C91.3435 27.113 112.116 15.4864 124.595 9.07254H124.596C125.672 8.51658 127.159 7.95723 128.742 8.06684C130.282 8.17193 132.011 8.91547 133.607 11.154L133.608 11.1563C133.892 11.5518 133.973 12.1495 133.702 13.0524C133.431 13.9519 132.846 15.0322 131.999 16.2413C130.308 18.6538 127.69 21.4234 124.924 24.0609C122.164 26.6915 119.286 29.1639 117.095 30.9798C115.968 31.9147 114.829 32.8349 113.678 33.7404L113.48 33.8953L113.429 33.9348L113.417 33.9438L113.414 33.9461L113.412 33.9472Z" fill="#F4AF89"/>
<path d="M113.845 34.5066L113.412 33.9472M113.412 33.9472L112.592 34.58L113.481 35.1134L113.484 35.1157L113.494 35.1213L113.533 35.145L113.588 35.1789L113.693 35.2422C113.832 35.3292 114.036 35.4569 114.296 35.6219C114.816 35.953 115.554 36.4355 116.425 37.0344C118.169 38.2367 120.436 39.9069 122.546 41.7917C124.665 43.6867 126.58 45.7569 127.666 47.7524C128.752 49.7446 128.935 51.4984 127.927 52.9617C125.106 57.0264 119.296 59.7643 114.035 61.4876C111.117 62.4361 108.137 63.1826 105.117 63.7216C104.867 63.7657 104.673 63.7973 104.543 63.8188L104.395 63.8414L104.358 63.847L104.349 63.8482H104.348L104.346 63.8493L104.254 63.8617L104.168 63.899L19.6868 100.43L6.1991 65.2448L6.25221 65.2222L8.21841 64.3951C18.1507 60.2155 28.0755 56.0183 37.9928 51.8035C55.1349 44.515 74.1607 36.3496 81.639 32.8602L81.6695 32.8455L81.7 32.8274C91.3435 27.113 112.116 15.4864 124.595 9.07254H124.596C125.672 8.51658 127.159 7.95723 128.742 8.06684C130.282 8.17193 132.011 8.91547 133.607 11.154L133.608 11.1563C133.892 11.5518 133.973 12.1495 133.702 13.0524C133.431 13.9519 132.846 15.0322 131.999 16.2413C130.308 18.6538 127.69 21.4234 124.924 24.0609C122.164 26.6915 119.286 29.1639 117.095 30.9798C115.968 31.9147 114.829 32.8349 113.678 33.7404L113.48 33.8953L113.429 33.9348L113.417 33.9438L113.414 33.9461L113.412 33.9472Z" stroke="black" stroke-width="1.252"/>
<path d="M65.8462 38.8799C47.0215 47.0441 16.403 55.8434 4.564 59.134C3.43628 59.4449 2.47552 60.1857 1.88816 61.1974C1.30611 62.2015 1.14638 63.3955 1.44406 64.5173L11.9689 104.381L11.97 104.386C12.1429 105.053 12.4695 105.671 12.926 106.191C13.3825 106.71 13.9566 107.118 14.6018 107.382C15.2475 107.644 15.945 107.754 16.6401 107.702C17.3351 107.651 18.0089 107.439 18.6088 107.084L65.8462 38.8799ZM65.8462 38.8799C69.2079 51.2285 74.4861 63.2167 79.579 74.5709L65.8462 38.8799Z" fill="#5CAFCC"/>
<path d="M65.8462 38.8799C47.0215 47.0441 16.403 55.8434 4.564 59.134C3.43628 59.4449 2.47552 60.1857 1.88816 61.1974C1.30611 62.2015 1.14638 63.3955 1.44406 64.5173L11.9689 104.381L11.97 104.386C12.1429 105.053 12.4695 105.671 12.926 106.191C13.3825 106.71 13.9566 107.118 14.6018 107.382C15.2475 107.644 15.945 107.754 16.6401 107.702C17.3351 107.651 18.0089 107.439 18.6088 107.084L65.8462 38.8799ZM65.8462 38.8799C69.2079 51.2285 74.4861 63.2167 79.579 74.5709L65.8462 38.8799Z" stroke="black" stroke-width="1.252"/>
<path d="M77.3145 78.8547L69.0339 83.6052C68.4635 83.9328 67.829 84.1329 67.1739 84.1917C66.522 84.2502 65.8652 84.1654 65.2495 83.9431C64.6226 83.7173 64.051 83.3606 63.5726 82.8967C63.0809 82.4208 62.6918 81.8494 62.429 81.2176L60.8617 77.4637C56.8796 67.8395 52.8455 57.8492 50.7595 47.3729C50.546 46.2921 50.6743 45.1716 51.1268 44.1671C51.5629 43.189 52.3059 42.3798 53.2433 41.8619C56.3157 40.1881 59.3848 38.5082 62.4505 36.8221C63.076 36.4787 63.7737 36.2878 64.4869 36.265C65.2001 36.2422 65.9086 36.3882 66.5547 36.691C67.2055 36.9939 67.7864 37.4504 68.2519 38.0267C68.7175 38.603 69.0542 39.2855 69.2362 40.0223L69.2373 40.0245C72.0431 51.2093 75.7574 62.1466 79.4977 72.6669L79.4988 72.668C79.9043 73.8112 79.9047 75.0591 79.4999 76.2026C79.1116 77.3193 78.3364 78.2601 77.3145 78.8547Z" fill="#1C6377" stroke="black" stroke-width="1.252"/>
<path d="M145.624 30.8512C145.624 47.3379 132.26 60.7024 115.773 60.7024C99.2874 60.7024 85.9229 47.3379 85.9229 30.8512C85.9229 14.3645 99.2874 1 115.773 1C132.26 1 145.624 14.3645 145.624 30.8512Z" fill="#BBD8FF" stroke="black" stroke-width="1.252"/>
<path d="M100.129 34.6366L81.2706 47.3061L73.4601 37.6141L95.5188 20.0087C95.9699 19.6491 96.4908 19.387 97.0485 19.2392C97.6062 19.0914 98.1885 19.061 98.7585 19.1499C99.3291 19.2418 99.8745 19.4505 100.361 19.763C100.847 20.0755 101.263 20.485 101.584 20.9658L102.532 22.393C103.5 23.8447 104.018 25.55 104.021 27.295C104.023 29.04 103.51 30.7469 102.546 32.2014C101.909 33.1643 101.087 33.9919 100.129 34.6366Z" fill="#F4AF89"/>
<path d="M72.5188 37.4333C76.0444 36.2581 95.5177 20.0087 95.5177 20.0087C95.9687 19.6488 96.4895 19.3866 97.0473 19.2388C97.605 19.091 98.1874 19.0607 98.7574 19.1499C99.3285 19.2396 99.8746 19.4473 100.361 19.7598C100.847 20.0722 101.263 20.4826 101.582 20.9647L102.532 22.393C103.83 24.3401 104.305 26.722 103.853 29.0182C103.629 30.1544 103.185 31.2359 102.546 32.2014C101.908 33.1644 101.087 33.9919 100.128 34.6366L82.8628 44.9558" stroke="black" stroke-width="1.252" stroke-linecap="round"/>
<path d="M110.563 33.1479C112.253 32.5389 113.129 30.6754 112.52 28.9857C111.911 27.296 110.048 26.4199 108.358 27.0289C106.668 27.6379 105.792 29.5014 106.401 31.1911C107.01 32.8808 108.874 33.7569 110.563 33.1479Z" fill="black"/>
<path d="M106.933 39.0674C115.035 45.8926 127.487 41.4043 129.371 30.98M123.656 21.5151L118.639 26.7809L124.841 28.0025" stroke="black" stroke-width="1.503" stroke-linecap="round" stroke-linejoin="round"/>
<path d="M243.578 105.38H243.577L243.574 105.378L243.562 105.368L243.513 105.328C242.321 104.372 241.142 103.399 239.977 102.411C237.834 100.593 235.02 98.1179 232.321 95.4839C229.616 92.8442 227.056 90.0723 225.403 87.6575C224.575 86.4461 224.002 85.3647 223.739 84.463C223.473 83.5556 223.552 82.9521 223.833 82.5521L223.834 82.551C225.391 80.3249 227.076 79.5847 228.573 79.4763C230.113 79.3644 231.563 79.9147 232.615 80.4684C244.81 86.8891 265.122 98.5349 274.557 104.256L274.587 104.274L274.618 104.289C286.628 110.036 329.32 128.497 343.981 134.819C345.164 135.329 346.105 136.275 346.61 137.46C347.115 138.644 347.144 139.978 346.693 141.184L337.051 166.968L337.05 166.97C336.806 167.606 336.437 168.185 335.963 168.674C335.489 169.162 334.921 169.549 334.293 169.812C333.665 170.074 332.99 170.206 332.31 170.2C331.629 170.193 330.957 170.049 330.334 169.775L252.607 135.369L252.52 135.331L252.426 135.317H252.425L252.424 135.316L252.415 135.315L252.379 135.31L252.32 135.301C251.413 135.148 250.51 134.974 249.611 134.777C247.362 134.289 245.141 133.68 242.958 132.952C237.816 131.225 232.141 128.484 229.387 124.418C228.389 122.949 228.567 121.186 229.627 119.191C230.687 117.193 232.561 115.122 234.634 113.226C236.7 111.339 238.919 109.665 240.627 108.462C241.505 107.843 242.397 107.245 243.302 106.669L243.458 106.57L243.497 106.547L243.507 106.541L243.509 106.54V106.539L244.374 106.009L243.578 105.38Z" fill="#DD9C74"/>
<path d="M243.14 105.936L243.578 105.38M243.578 105.38H243.577L243.574 105.378L243.562 105.368L243.513 105.328C242.321 104.372 241.142 103.399 239.977 102.411C237.834 100.593 235.02 98.1179 232.321 95.4839C229.616 92.8442 227.056 90.0723 225.403 87.6575C224.575 86.4461 224.002 85.3647 223.739 84.463C223.473 83.5556 223.552 82.9521 223.833 82.5521L223.834 82.551C225.391 80.3249 227.076 79.5847 228.573 79.4763C230.113 79.3644 231.563 79.9147 232.615 80.4684C244.81 86.8891 265.122 98.5349 274.557 104.256L274.587 104.274L274.618 104.289C286.628 110.036 329.32 128.497 343.981 134.819C345.164 135.329 346.105 136.275 346.61 137.46C347.115 138.644 347.144 139.978 346.693 141.184L337.051 166.968L337.05 166.97C336.806 167.606 336.437 168.185 335.963 168.674C335.489 169.162 334.921 169.549 334.293 169.812C333.665 170.074 332.99 170.206 332.31 170.2C331.629 170.193 330.957 170.049 330.334 169.775L252.607 135.369L252.52 135.331L252.426 135.317H252.425L252.424 135.316L252.415 135.315L252.379 135.31L252.32 135.301C251.413 135.148 250.51 134.974 249.611 134.777C247.362 134.289 245.141 133.68 242.958 132.952C237.816 131.225 232.141 128.484 229.387 124.418C228.389 122.949 228.567 121.186 229.627 119.191C230.687 117.193 232.561 115.122 234.634 113.226C236.7 111.339 238.919 109.665 240.627 108.462C241.505 107.843 242.397 107.245 243.302 106.669L243.458 106.57L243.497 106.547L243.507 106.541L243.509 106.54V106.539L244.374 106.009L243.578 105.38Z" stroke="black" stroke-width="1.252"/>
<path d="M218.002 127.16C230.51 138.067 249.491 136.769 260.398 124.262C271.304 111.754 270.007 92.7735 257.499 81.8668C244.992 70.96 226.011 72.2577 215.104 84.7651C204.197 97.2726 205.495 116.254 218.002 127.16Z" fill="#20AEBF" stroke="black" stroke-width="1.233"/>
<path fill-rule="evenodd" clip-rule="evenodd" d="M243.003 89.0551C243.46 89.1975 243.858 89.5421 244.016 90.0393C244.14 90.4314 244.088 90.8337 244.061 91.0247C244.017 91.3072 243.96 91.5874 243.889 91.8643C243.778 92.3095 243.626 92.8508 243.463 93.4248L243.309 93.9683C242.861 95.5673 242.393 97.3685 242.284 98.885C242.175 100.406 242.358 102.27 242.802 103.598C242.934 103.994 243.072 104.289 243.199 104.497L243.241 104.338L243.249 104.311C243.44 103.619 243.724 102.587 244.272 101.689C244.839 100.763 246.087 99.5472 247.139 98.6929C247.674 98.259 248.245 97.8476 248.738 97.5889C248.959 97.4725 249.304 97.3109 249.689 97.2634C250.005 97.2225 250.325 97.2694 250.616 97.399C251.053 97.5979 251.328 97.9527 251.444 98.3222C251.594 98.798 251.54 99.3415 251.497 99.6873C251.445 100.1 251.353 100.578 251.258 101.05L251.205 101.312C251.023 102.218 250.834 103.152 250.77 103.999C250.688 105.062 250.883 105.666 251.141 106.473C251.228 106.743 251.322 107.035 251.415 107.374C251.805 108.792 251.91 110.391 250.954 113.08C248.897 118.862 241.579 121.588 234.924 120.257C231.743 119.622 228.527 118.08 226.16 115.83C223.777 113.565 222.212 110.526 222.553 106.995C222.869 103.727 224.146 101.288 225.417 99.7246C226.046 98.9505 226.698 98.3618 227.264 97.9923C227.533 97.8171 227.862 97.6386 228.215 97.5493C228.382 97.5064 228.68 97.451 229.028 97.5233C229.446 97.6081 229.903 97.8804 230.128 98.3855C230.237 98.6319 230.279 98.8872 230.301 99.0443C230.326 99.2274 230.341 99.4296 230.353 99.6285C230.365 99.8466 230.375 100.118 230.387 100.399L230.411 101C230.459 102.024 230.55 103.103 230.817 103.973C230.86 104.117 230.906 104.25 230.953 104.375C231.08 103.687 231.237 102.857 231.44 101.973C231.962 99.6873 232.833 96.7922 234.507 94.7514C235.677 93.3231 237.492 91.7728 239.022 90.6755C239.787 90.1286 240.535 89.654 241.141 89.3591C241.424 89.2212 241.782 89.0687 242.142 89.0076C242.429 88.9555 242.724 88.9718 243.003 89.0551ZM240.715 92.7864C239.292 93.8056 237.674 95.2046 236.698 96.3956C235.426 97.9459 234.651 100.339 234.138 102.586C233.956 103.403 233.79 104.224 233.642 105.048L233.557 105.501C233.494 105.854 233.421 106.205 233.338 106.553C233.301 106.703 233.257 106.852 233.205 106.997C233.13 107.209 233.017 107.404 232.871 107.575C232.426 108.075 231.769 108.281 231.111 108.167C230.539 108.068 230.08 107.757 229.753 107.45C229.081 106.827 228.531 105.848 228.166 104.654C227.827 103.542 227.718 102.299 227.664 101.3L227.615 101.361C226.629 102.572 225.567 104.554 225.303 107.292C225.053 109.881 226.172 112.169 228.09 113.994C230.026 115.835 232.73 117.147 235.433 117.687C241.192 118.839 246.851 116.364 248.335 112.188C249.137 109.936 248.985 108.859 248.745 107.984C248.694 107.8 248.629 107.6 248.558 107.384C248.271 106.505 247.894 105.349 248.016 103.751C248.081 102.889 248.251 101.97 248.41 101.172C247.628 101.866 246.938 102.604 246.666 103.047C246.324 103.608 246.118 104.315 245.914 105.056L245.897 105.118C245.812 105.449 245.711 105.776 245.593 106.098C245.519 106.294 245.423 106.481 245.305 106.655C245.107 106.946 244.825 107.168 244.496 107.292C243.976 107.49 243.41 107.529 242.869 107.405C242.367 107.283 241.906 107.03 241.533 106.673C240.874 106.057 240.453 105.18 240.172 104.344C239.601 102.633 239.402 100.425 239.529 98.6477C239.658 96.8464 240.198 94.8181 240.64 93.2384L240.781 92.7389L240.715 92.7864Z" fill="white"/>
<path d="M260.801 105.942L278.677 117.865L286.09 108.754L265.172 92.1966C264.527 91.6847 263.738 91.3865 262.916 91.3433C262.093 91.3002 261.278 91.5143 260.582 91.9559C260.121 92.2497 259.726 92.6362 259.421 93.0904L258.516 94.4396C257.908 95.3442 257.485 96.3598 257.271 97.4282C257.057 98.4966 257.057 99.5967 257.269 100.665C257.481 101.734 257.902 102.75 258.508 103.656C259.115 104.561 259.893 105.338 260.801 105.942Z" fill="#DD9C74"/>
<path d="M274.32 115.613C273.414 115.009 258.777 105.207 258.171 104.301C257.565 103.396 257.144 102.38 256.932 101.311C256.72 100.243 256.721 99.1428 256.935 98.0747C257.148 97.0065 257.57 95.9908 258.177 95.0859L259.082 93.7367C259.542 93.0533 260.203 92.53 260.973 92.2394C261.744 91.9488 262.586 91.9054 263.383 92.1151C263.911 92.2552 264.405 92.5027 264.833 92.8428L285.751 109.401" stroke="black" stroke-width="1.252" stroke-linecap="round"/>
<path d="M284.44 149.446L302.283 116.061C302.768 115.154 303.566 114.453 304.529 114.09C305.492 113.727 306.554 113.727 307.517 114.088L350.949 130.375C351.475 130.572 351.956 130.872 352.366 131.257C352.775 131.642 353.104 132.105 353.333 132.618C353.562 133.131 353.688 133.684 353.701 134.246C353.715 134.808 353.617 135.367 353.413 135.89L340.191 169.807C339.791 170.832 339.009 171.662 338.01 172.122C337.011 172.581 335.872 172.635 334.834 172.272L286.781 155.453C286.203 155.25 285.676 154.925 285.235 154.5C284.795 154.074 284.452 153.559 284.229 152.988C284.007 152.417 283.91 151.805 283.947 151.194C283.983 150.582 284.152 149.986 284.44 149.446Z" fill="#FDEB5A" stroke="black" stroke-width="1.252" stroke-linecap="round"/>
<path d="M283.126 150.168L302.321 115.847C302.804 114.985 303.572 114.318 304.493 113.961C305.415 113.605 306.432 113.58 307.369 113.892L320.649 118.32C321.223 118.511 321.75 118.824 322.194 119.236C322.638 119.648 322.989 120.15 323.223 120.709C323.456 121.268 323.568 121.87 323.549 122.476C323.531 123.081 323.383 123.676 323.115 124.22L305.717 159.595C305.255 160.534 304.463 161.27 303.492 161.66C302.521 162.051 301.44 162.069 300.457 161.712L285.38 156.229C284.802 156.019 284.277 155.686 283.84 155.252C283.403 154.819 283.066 154.296 282.852 153.72C282.637 153.143 282.551 152.527 282.598 151.913C282.646 151.3 282.826 150.705 283.126 150.168Z" fill="#EAC432" stroke="black" stroke-width="1.252" stroke-linecap="round"/>
<path d="M156.882 153.838C165.145 144.11 186.034 126.519 203.491 133.978" stroke="black" stroke-width="1.252"/>
<path d="M75.9529 97.7493L75.9517 97.7538L75.6319 99.416C75.4883 100.158 75.1912 100.863 74.7599 101.484C74.3285 102.105 73.7723 102.629 73.1267 103.023L72.2871 103.535L72.2849 103.536L72.2838 103.541L72.2849 103.544V103.545L72.2871 103.546L73.164 103.99C73.8388 104.332 74.4348 104.811 74.9137 105.396C75.3926 105.981 75.7438 106.66 75.945 107.389L76.3947 109.021L76.3958 109.026H76.4015L76.406 109.024L76.4071 109.02L76.728 107.359C76.8711 106.616 77.1678 105.912 77.5993 105.29C78.0307 104.669 78.5873 104.145 79.2333 103.752L80.0728 103.24L80.0751 103.239V103.23M75.9529 97.7493L80.0751 103.23L75.9529 97.7493ZM75.9529 97.7493H75.963H75.9529ZM75.9529 97.7493H75.963H75.9529ZM80.0751 103.23L80.0717 103.229L79.1948 102.785C78.5202 102.443 77.9243 101.964 77.4454 101.378C76.9666 100.793 76.6152 100.113 76.4139 99.3844L75.9642 97.7538L75.963 97.7493M80.0751 103.23L75.963 97.7493L80.0751 103.23Z" fill="#25F4EE"/>
<path d="M75.9529 97.7493L75.9517 97.7538L75.6319 99.416C75.4883 100.158 75.1912 100.863 74.7599 101.484C74.3285 102.105 73.7723 102.629 73.1267 103.023L72.2871 103.535L72.2849 103.536L72.2838 103.541L72.2849 103.544V103.545L72.2871 103.546L73.164 103.99C73.8388 104.332 74.4348 104.811 74.9137 105.396C75.3926 105.981 75.7438 106.66 75.945 107.389L76.3947 109.021L76.3958 109.026H76.4015L76.406 109.024L76.4071 109.02L76.728 107.359C76.8711 106.616 77.1678 105.912 77.5993 105.29C78.0307 104.669 78.5873 104.145 79.2333 103.752L80.0728 103.24L80.0751 103.239V103.23M75.9529 97.7493L80.0751 103.23M75.9529 97.7493H75.963M80.0751 103.23L80.0717 103.229L79.1948 102.785C78.5202 102.443 77.9243 101.964 77.4454 101.378C76.9666 100.793 76.6152 100.113 76.4139 99.3844L75.9642 97.7538L75.963 97.7493M80.0751 103.23L75.963 97.7493" stroke="black" stroke-width="0.524" stroke-linejoin="round"/>
<path d="M188.726 146.548L188.722 146.552L185.298 150.341C184.791 150.902 184.173 151.351 183.482 151.659C182.792 151.967 182.044 152.127 181.288 152.129L177.838 152.14H177.835L177.833 152.143L177.831 152.146M188.726 146.548L177.831 152.146L188.726 146.548ZM188.726 146.548L188.73 146.551L188.735 146.553M188.726 146.548L188.727 146.546L188.723 146.547L188.726 146.548ZM188.726 146.548L178.888 164.343L188.726 146.548ZM177.831 152.146L177.833 152.15L179.659 155.077C180.059 155.718 180.321 156.437 180.427 157.185C180.533 157.934 180.482 158.697 180.277 159.425L178.889 164.338L178.888 164.343M177.831 152.146L178.888 164.343L177.831 152.146ZM178.888 164.343L178.887 164.341L178.888 164.345V164.343ZM178.888 164.343C178.889 164.344 178.891 164.345 178.892 164.346L178.897 164.348M178.897 164.348L178.895 164.349L178.899 164.348H178.897ZM178.897 164.348L178.9 164.345L182.324 160.556C182.831 159.995 183.45 159.546 184.14 159.238C184.831 158.93 185.578 158.769 186.335 158.767L189.785 158.757H189.787L189.788 158.756M189.788 158.756L189.79 158.754L189.791 158.749M189.791 158.749L189.79 158.747L187.964 155.82C187.564 155.178 187.302 154.46 187.196 153.711C187.089 152.962 187.14 152.2 187.346 151.472L188.734 146.557L188.735 146.553M188.735 146.553L188.736 146.555V146.554L188.735 146.551V146.553Z" fill="#FDEB5A"/>
<path d="M188.726 146.548L188.722 146.552L185.298 150.341C184.791 150.902 184.173 151.351 183.482 151.659C182.792 151.967 182.044 152.127 181.288 152.129L177.838 152.14H177.835L177.833 152.143L177.831 152.146M188.726 146.548L177.831 152.146M188.726 146.548L188.73 146.551L188.735 146.553M188.726 146.548L188.727 146.546L188.723 146.547L188.726 146.548ZM188.726 146.548L178.888 164.343M177.831 152.146L177.833 152.15M177.831 152.146L178.888 164.343M188.735 146.553L188.734 146.557L187.346 151.472C187.14 152.2 187.089 152.962 187.196 153.711C187.302 154.46 187.564 155.178 187.964 155.82L189.79 158.747L189.791 158.749L189.79 158.754L189.788 158.756L189.787 158.757H189.785L186.335 158.767C185.578 158.769 184.831 158.93 184.14 159.238C183.45 159.546 182.831 159.995 182.324 160.556L178.9 164.345L178.897 164.348M188.735 146.553L188.736 146.555V146.554L188.735 146.551V146.553ZM178.888 164.343L178.889 164.338L180.277 159.425C180.482 158.697 180.533 157.934 180.427 157.185C180.321 156.437 180.059 155.718 179.659 155.077L177.833 152.15M178.888 164.343L178.887 164.341L178.888 164.345V164.343ZM178.888 164.343C178.889 164.344 178.891 164.345 178.892 164.346L178.897 164.348M177.833 152.15L177.584 152.305M178.897 164.348L178.895 164.349L178.899 164.348H178.897Z" stroke="black" stroke-width="0.524" stroke-linejoin="round"/>
<path d="M211.355 138.958C212.918 138.958 214.185 137.691 214.185 136.129C214.185 134.566 212.918 133.299 211.355 133.299C209.792 133.299 208.526 134.566 208.526 136.129C208.526 137.691 209.792 138.958 211.355 138.958Z" fill="#FF7043"/>
<path d="M62.7838 112.074C64.3465 112.074 65.6134 110.808 65.6134 109.245C65.6134 107.682 64.3465 106.415 62.7838 106.415C61.2211 106.415 59.9543 107.682 59.9543 109.245C59.9543 110.808 61.2211 112.074 62.7838 112.074Z" fill="#20AEBF"/>
<path d="M159.707 143.911C165.839 135.894 182.064 119.008 197.912 115.612M78.3485 149.571C79.5282 140.845 80.0469 121.555 72.6883 114.197" stroke="black" stroke-width="1.252" stroke-dasharray="1.88 1.88"/>
</svg>
