<svg width="20" height="20" viewBox="0 0 20 20" fill="none" xmlns="http://www.w3.org/2000/svg">
<g id="Icon" clip-path="url(#clip0_19176_1960)">
<path id="Vector" d="M1.66667 5.83342L5.34167 2.15842C5.49671 2.00244 5.6811 1.8787 5.88419 1.79431C6.08729 1.70993 6.30507 1.66657 6.525 1.66675H13.475C13.6949 1.66657 13.9127 1.70993 14.1158 1.79431C14.3189 1.8787 14.5033 2.00244 14.6583 2.15842L18.3333 5.83342M1.66667 5.83342H18.3333M1.66667 5.83342V8.33342C1.66667 8.77544 1.84226 9.19937 2.15482 9.51193C2.46738 9.82449 2.89131 10.0001 3.33333 10.0001M18.3333 5.83342V8.33342C18.3333 8.77544 18.1577 9.19937 17.8452 9.51193C17.5326 9.82449 17.1087 10.0001 16.6667 10.0001M3.33333 10.0001V16.6667C3.33333 17.1088 3.50893 17.5327 3.82149 17.8453C4.13405 18.1578 4.55797 18.3334 5 18.3334H15C15.442 18.3334 15.866 18.1578 16.1785 17.8453C16.4911 17.5327 16.6667 17.1088 16.6667 16.6667V10.0001M3.33333 10.0001C3.82022 9.97328 4.28522 9.78904 4.65833 9.47508C4.75777 9.40323 4.87732 9.36455 5 9.36455C5.12268 9.36455 5.24223 9.40323 5.34167 9.47508C5.71478 9.78904 6.17978 9.97328 6.66667 10.0001C7.15355 9.97328 7.61856 9.78904 7.99167 9.47508C8.0911 9.40323 8.21066 9.36455 8.33333 9.36455C8.45601 9.36455 8.57557 9.40323 8.675 9.47508C9.04811 9.78904 9.51311 9.97328 10 10.0001C10.4869 9.97328 10.9519 9.78904 11.325 9.47508C11.4244 9.40323 11.544 9.36455 11.6667 9.36455C11.7893 9.36455 11.9089 9.40323 12.0083 9.47508C12.3814 9.78904 12.8464 9.97328 13.3333 10.0001C13.8202 9.97328 14.2852 9.78904 14.6583 9.47508C14.7578 9.40323 14.8773 9.36455 15 9.36455C15.1227 9.36455 15.2422 9.40323 15.3417 9.47508C15.7148 9.78904 16.1798 9.97328 16.6667 10.0001M12.5 18.3334V15.0001C12.5 14.5581 12.3244 14.1341 12.0118 13.8216C11.6993 13.509 11.2754 13.3334 10.8333 13.3334H9.16667C8.72464 13.3334 8.30072 13.509 7.98816 13.8216C7.6756 14.1341 7.5 14.5581 7.5 15.0001V18.3334" stroke="white" stroke-width="2" stroke-linecap="round" stroke-linejoin="round"/>
</g>
<defs>
<clipPath id="clip0_19176_1960">
<rect width="20" height="20" fill="white"/>
</clipPath>
</defs>
</svg>
